# xmcd CD database file
# Copyright (C) 1996 Ti Kan
#
# Track frame offsets:
#  180
#  10517
#  23277
#  33812
#  46332
#  58450
#  71750
#  85582
#  97332
#  109780
#  122672
#  135245
#  146850
#  160425
#  173007
#  184870
#  196685
#  207837
#  220712
#  235482
#
# Disc length: 3305 seconds
#
# Revision: 2
# Processed by: cddbd v1.4PL0 Copyright (c) Steve Scherf et al.
# Submitted via: Gronk 1.4
#
DISCID=100ce714
DTITLE=Snooky Pryor - Snooky Pryor
DYEAR=1900
DGENRE=blues
TTITLE0=Keep What You Got
TTITLE1=Stockyard Blues
TTITLE2=Boogie
TTITLE3=Telephone Blues
TTITLE4=Let Me Ride Your Mule
TTITLE5=My Baby Walked Out On Me
TTITLE6=Fine Boogie
TTITLE7=I'm Getting Tired
TTITLE8=Rough Treatment
TTITLE9=Why Should I Worry
TTITLE10=Going Back On The Road
TTITLE11=Real Fine Boogie
TTITLE12=Hold Me In Your Arms
TTITLE13=Rough Treatment
TTITLE14=Harp Instrumental
TTITLE15=Stop The Train Conductor
TTITLE16=Walking Boogie
TTITLE17=My Head Is Turning Grey
TTITLE18=Uncle Sam Don't Take My Man
TTITLE19=Boogie Twist
EXTD=PCD-11\n\nSubmitted 6/26/97\n[Jmccoy@efn.org]
EXTT0=
EXTT1=
EXTT2=
EXTT3=
EXTT4=
EXTT5=
EXTT6=
EXTT7=
EXTT8=
EXTT9=
EXTT10=
EXTT11=
EXTT12=
EXTT13=
EXTT14=
EXTT15=
EXTT16=
EXTT17=
EXTT18=
EXTT19=
PLAYORDER=
